<?xml version="1.0" encoding="utf-8"?>
<!-- Generator: Adobe Illustrator 24.0.1, SVG Export Plug-In . SVG Version: 6.00 Build 0)  -->
<svg version="1.1" id="Layer_1" xmlns="http://www.w3.org/2000/svg" xmlns:xlink="http://www.w3.org/1999/xlink" x="0px" y="0px"
	 viewBox="0 0 600 200" style="enable-background:new 0 0 600 200;" xml:space="preserve">
<g fill="#FFFFFF">
	<path d="M106.46,146.4v3.69H18.89V18.38h86.84v3.69H22.56v57.55h78.23v3.69H22.56v63.09H106.46z"/>
	<path d="M181.39,55.27l-34.44,45.75l37.74,49.07h-4.58l-35.54-46.3l-35.36,46.3h-4.4l37.56-49.07l-34.26-45.75h4.76l31.69,42.98
		l32.43-42.98H181.39z"/>
	<path d="M192.01,182.55V55.27h3.66v26.56h0.37c1.22-4.18,2.99-8.02,5.31-11.53c2.32-3.5,5.07-6.55,8.24-9.13
		c3.17-2.58,6.81-4.58,10.9-6c4.09-1.41,8.52-2.12,13.28-2.12c6.23,0,11.82,1.23,16.76,3.69c4.95,2.46,9.16,5.9,12.64,10.33
		c3.48,4.43,6.14,9.66,7.97,15.68c1.83,6.03,2.75,12.61,2.75,19.74c0,6.64-0.89,12.98-2.66,19c-1.77,6.03-4.34,11.32-7.69,15.86
		c-3.36,4.55-7.54,8.15-12.55,10.79c-5.01,2.64-10.75,3.97-17.22,3.97c-10.02,0-18.26-2.61-24.73-7.84
		c-6.47-5.23-10.81-12.14-13.01-20.75h-0.37v59.03H192.01z M250.36,144.46c4.58-2.77,8.34-6.33,11.27-10.7
		c2.93-4.36,5.1-9.28,6.5-14.76c1.4-5.47,2.11-10.98,2.11-16.51c0-6.15-0.76-11.96-2.29-17.43c-1.53-5.47-3.79-10.33-6.78-14.57
		c-2.99-4.24-6.78-7.59-11.36-10.05c-4.58-2.46-9.92-3.69-16.03-3.69c-5.99,0-11.36,1.23-16.12,3.69c-4.76,2.46-8.76,5.78-12,9.96
		c-3.24,4.18-5.71,9.04-7.42,14.57c-1.71,5.53-2.56,11.38-2.56,17.52c0,14.88,3.48,26.29,10.44,34.22
		c6.96,7.93,16.18,11.9,27.66,11.9C240.25,148.61,245.78,147.23,250.36,144.46z"/>
	<path d="M290.39,150.08V55.27h3.66V78.7h0.37c0.85-3.56,2.2-6.92,4.03-10.05c1.83-3.14,4.27-5.87,7.33-8.21
		c3.05-2.33,6.69-4.18,10.9-5.53c4.21-1.35,9.13-1.97,14.75-1.84v3.69c-6.47-0.37-12.06,0.52-16.76,2.67
		c-4.7,2.15-8.58,5.1-11.63,8.85c-3.05,3.75-5.31,8.09-6.78,13c-1.47,4.92-2.2,9.96-2.2,15.13v53.68H290.39z"/>
	<path d="M338.29,121.22c1.4,5.47,3.57,10.24,6.5,14.3s6.72,7.26,11.36,9.59c4.64,2.34,10.32,3.5,17.04,3.5
		c9.89,0,18.1-2.61,24.64-7.84c6.53-5.23,10.59-13.07,12.18-23.52h3.66c-1.35,11.07-5.68,19.65-13.01,25.73
		c-7.33,6.09-16.37,9.13-27.11,9.13c-7.33,0.12-13.59-1.05-18.78-3.5c-5.19-2.46-9.44-5.93-12.73-10.42
		c-3.3-4.49-5.74-9.78-7.33-15.86c-1.59-6.09-2.38-12.64-2.38-19.65c0-7.87,1.16-14.88,3.48-21.03c2.32-6.15,5.37-11.34,9.16-15.59
		c3.78-4.24,8.18-7.47,13.19-9.68c5.01-2.21,10.14-3.32,15.39-3.32c7.33,0,13.65,1.42,18.96,4.24c5.31,2.83,9.65,6.58,13.01,11.25
		c3.36,4.68,5.8,10.02,7.33,16.05c1.53,6.03,2.17,12.3,1.92,18.81H336C336.12,109.81,336.89,115.75,338.29,121.22z M408.73,83.22
		c-1.59-5.23-3.94-9.81-7.05-13.74c-3.11-3.93-6.99-7.04-11.63-9.32c-4.64-2.27-10.02-3.41-16.12-3.41c-5.13,0-9.92,0.99-14.38,2.95
		c-4.46,1.97-8.37,4.83-11.73,8.58c-3.36,3.75-6.08,8.27-8.15,13.56c-2.08,5.29-3.3,11.25-3.66,17.89h75.11
		C411.11,93.95,410.32,88.44,408.73,83.22z"/>
	<path d="M488.61,71.13c-1.47-3.32-3.54-6.06-6.23-8.21c-2.69-2.15-5.89-3.72-9.62-4.7c-3.73-0.98-7.85-1.48-12.37-1.48
		c-6.6,0-11.79,0.89-15.57,2.67c-3.79,1.78-6.6,3.81-8.43,6.09c-1.83,2.28-2.99,4.52-3.48,6.73c-0.49,2.21-0.73,3.75-0.73,4.61
		c0,4.67,0.94,8.27,2.84,10.79c1.89,2.52,4.43,4.46,7.6,5.81c3.3,1.35,6.87,2.52,10.72,3.5c3.85,0.99,8.34,2.15,13.47,3.5
		c3.66,0.99,7.3,2,10.9,3.04c3.6,1.05,6.84,2.49,9.71,4.33c2.87,1.84,5.19,4.18,6.96,7.01c1.77,2.83,2.66,6.52,2.66,11.07
		c0,4.8-1.01,8.85-3.02,12.17c-2.02,3.32-4.64,6.03-7.88,8.12c-3.24,2.09-6.9,3.6-10.99,4.52c-4.09,0.92-8.15,1.38-12.18,1.38
		c-12.58,0-22.08-2.77-28.49-8.3c-6.41-5.53-9.62-14.26-9.62-26.19h3.66c0,10.7,2.96,18.54,8.88,23.52
		c5.92,4.98,14.44,7.47,25.56,7.47c3.42,0,6.93-0.4,10.53-1.2c3.6-0.8,6.87-2.09,9.8-3.87c2.93-1.78,5.34-4.09,7.24-6.92
		c1.89-2.83,2.84-6.27,2.84-10.33c0-4.18-0.95-7.56-2.84-10.15c-1.9-2.58-4.34-4.7-7.33-6.36c-2.99-1.66-6.44-2.98-10.35-3.97
		c-3.91-0.98-7.88-1.97-11.91-2.95c-4.52-1.11-8.49-2.15-11.91-3.14c-3.42-0.98-6.48-2.09-9.16-3.32c-3.91-1.72-6.78-4.12-8.61-7.19
		c-1.83-3.07-2.75-7.19-2.75-12.36c0-2.58,0.55-5.29,1.65-8.12c1.1-2.83,2.93-5.41,5.5-7.75c2.56-2.33,5.86-4.24,9.89-5.72
		c4.03-1.48,8.98-2.21,14.84-2.21c10.5,0,18.81,2.4,24.92,7.19c6.11,4.8,9.16,12.48,9.16,23.06h-3.66
		C490.81,78.51,490.07,74.45,488.61,71.13z"/>
	<path d="M573.43,71.13c-1.46-3.32-3.54-6.06-6.23-8.21c-2.69-2.15-5.89-3.72-9.62-4.7c-3.73-0.98-7.85-1.48-12.37-1.48
		c-6.59,0-11.79,0.89-15.57,2.67c-3.79,1.78-6.6,3.81-8.43,6.09c-1.83,2.28-2.99,4.52-3.48,6.73c-0.49,2.21-0.73,3.75-0.73,4.61
		c0,4.67,0.94,8.27,2.84,10.79c1.89,2.52,4.43,4.46,7.6,5.81c3.3,1.35,6.87,2.52,10.72,3.5c3.85,0.99,8.34,2.15,13.46,3.5
		c3.66,0.99,7.3,2,10.9,3.04c3.6,1.05,6.84,2.49,9.71,4.33c2.87,1.84,5.19,4.18,6.96,7.01c1.77,2.83,2.66,6.52,2.66,11.07
		c0,4.8-1.01,8.85-3.02,12.17c-2.01,3.32-4.64,6.03-7.88,8.12c-3.24,2.09-6.9,3.6-10.99,4.52c-4.09,0.92-8.15,1.38-12.18,1.38
		c-12.58,0-22.08-2.77-28.49-8.3c-6.41-5.53-9.62-14.26-9.62-26.19h3.66c0,10.7,2.96,18.54,8.88,23.52
		c5.92,4.98,14.44,7.47,25.56,7.47c3.42,0,6.93-0.4,10.53-1.2c3.6-0.8,6.87-2.09,9.8-3.87c2.93-1.78,5.34-4.09,7.24-6.92
		c1.89-2.83,2.84-6.27,2.84-10.33c0-4.18-0.95-7.56-2.84-10.15c-1.89-2.58-4.34-4.7-7.33-6.36c-2.99-1.66-6.44-2.98-10.35-3.97
		c-3.91-0.98-7.88-1.97-11.91-2.95c-4.52-1.11-8.49-2.15-11.91-3.14c-3.42-0.98-6.47-2.09-9.16-3.32c-3.91-1.72-6.78-4.12-8.61-7.19
		c-1.83-3.07-2.75-7.19-2.75-12.36c0-2.58,0.55-5.29,1.65-8.12c1.1-2.83,2.93-5.41,5.5-7.75c2.56-2.33,5.86-4.24,9.89-5.72
		c4.03-1.48,8.98-2.21,14.84-2.21c10.5,0,18.81,2.4,24.92,7.19c6.11,4.8,9.16,12.48,9.16,23.06h-3.66
		C575.63,78.51,574.89,74.45,573.43,71.13z"/>
</g>
</svg>
